<svg xmlns="http://www.w3.org/2000/svg" viewBox="0 0 512 512">
  <rect width="512" height="512" rx="96" fill="#0a0a0f"/>
  <rect x="48" y="48" width="416" height="416" rx="72" fill="#111118"/>
  <!-- Bar chart bars -->
  <rect x="100" y="280" width="64" height="120" rx="10" fill="#6fcf97"/>
  <rect x="192" y="220" width="64" height="180" rx="10" fill="#c8f135"/>
  <rect x="284" y="180" width="64" height="220" rx="10" fill="#6fcf97"/>
  <rect x="376" y="240" width="64" height="160" rx="10" fill="#c8f135" opacity=".6"/>
  <!-- Trend line -->
  <polyline points="132,268 224,208 316,168 408,228" stroke="#c8f135" stroke-width="12" fill="none" stroke-linecap="round" stroke-linejoin="round"/>
  <!-- Dots on line -->
  <circle cx="132" cy="268" r="10" fill="#c8f135"/>
  <circle cx="224" cy="208" r="10" fill="#c8f135"/>
  <circle cx="316" cy="168" r="10" fill="#c8f135"/>
  <circle cx="408" cy="228" r="10" fill="#c8f135"/>
  <!-- Logo dot accent -->
  <rect x="204" y="108" width="24" height="24" rx="6" fill="#c8f135"/>
  <!-- "FP" text hint: small squares -->
  <rect x="240" y="108" width="68" height="10" rx="5" fill="#f0f0f4" opacity=".5"/>
  <rect x="240" y="126" width="44" height="10" rx="5" fill="#f0f0f4" opacity=".3"/>
</svg>
